<?xml version="1.0" encoding="utf-8"?>
<!-- Generator: Adobe Illustrator 24.1.3, SVG Export Plug-In . SVG Version: 6.00 Build 0)  -->
<svg version="1.1" xmlns="http://www.w3.org/2000/svg" xmlns:xlink="http://www.w3.org/1999/xlink" x="0px" y="0px"
	 viewBox="0 0 274.09 248.79" style="enable-background:new 0 0 274.09 248.79;" xml:space="preserve">
<style type="text/css">
	.st0{fill:#BB9360;stroke:#A07443;stroke-miterlimit:10;}
	.st1{fill:#333333;}
	.st2{fill:#E52629;}
	.st3{fill:#FFFFFF;}
	.st4{fill:#020203;}
	.st5{display:none;fill:#E52629;}
	.st6{fill:#D9242B;}
	.st7{fill:#9D9D9C;stroke:#878787;stroke-miterlimit:10;}
	.st8{fill:#575756;stroke:#575756;stroke-miterlimit:10;}
	.st9{fill:none;stroke:#706F6F;stroke-width:4;stroke-miterlimit:10;}
	.st10{fill:none;stroke:#575756;stroke-width:4;stroke-miterlimit:10;}
	.st11{fill:#FAF19B;}
	.st12{fill:#575756;}
	.st13{fill:none;stroke:#B2B2B2;stroke-miterlimit:10;}
	.st14{fill:none;stroke:#FBEE6C;stroke-width:3;stroke-miterlimit:10;}
	.st15{fill:#8493CA;stroke:#7B6A58;stroke-width:0.5;stroke-miterlimit:10;}
	.st16{opacity:0.61;fill:#DDDDD5;stroke:#7B6A58;stroke-width:4;stroke-miterlimit:10;}
	.st17{fill:#DDDDD5;stroke:#706F6F;stroke-width:6;stroke-miterlimit:10;}
	.st18{fill:#DDDDD5;stroke:#706F6F;stroke-width:4;stroke-miterlimit:10;}
	.st19{fill:#8493CA;}
</style>
<g id="Layer_11">
	<path class="st0" d="M163.69,175.77H24.75c-5.01,0-9.1-4.1-9.1-9.1v-3.4c0-5.01,4.1-9.1,9.1-9.1h138.94c5.01,0,9.1,4.1,9.1,9.1v3.4
		C172.79,171.68,168.69,175.77,163.69,175.77z"/>
	<path class="st0" d="M169.06,176.25c-48.62-0.16-97.23-0.32-145.85-0.48c-0.98,0.18-1.69,0.54-2.21,0.94
		c-2.91,2.19-3.24,7.78-0.94,13.96c0.89,4.35,1.78,8.7,2.68,13.05c0.13,1.72,0.76,7.38,5.32,11.63c1.72,1.6,3.52,2.55,4.92,3.13
		c41.88,0.09,83.75,0.19,125.63,0.28c1.04-0.47,2.41-1.23,3.74-2.47c2.64-2.45,3.63-5.32,4-6.72c0.57-3.46,1.14-6.92,1.7-10.38
		c0.8-4.92,1.6-9.82,2.38-14.72c0.26-0.72,0.7-2.21,0.43-4.09C170.57,178.27,169.55,176.85,169.06,176.25z"/>
	<path class="st0" d="M172.79,158.16c3.36-12.3,6.72-24.6,10.09-36.9c0,0,1.28-2.17,5.62-7.27c1.66-1.95,2.81-4.99,2.52-8.55
		c-0.3-3.71-2.42-6.29-3.41-7.37c-1.26-0.89-3.15-2.02-5.62-2.81c-9.26-2.95-17.46,1.89-18.26,2.38
		c-10.55,6.46-10.85,19.23-10.85,20.04c-1.62,12.13-3.23,24.26-4.85,36.38L172.79,158.16z"/>
	<path class="st0" d="M44.14,152.07c-1.77-12.11-3.55-24.21-5.32-36.32c-0.02-0.81-0.48-13.58-11.11-19.9
		c-0.81-0.48-9.06-5.22-18.28-2.15c-2.46,0.82-4.33,1.97-5.58,2.88c-0.98,1.09-3.07,3.7-3.32,7.41c-0.24,3.57,0.95,6.59,2.63,8.52
		c4.41,5.04,5.71,7.19,5.71,7.19c3.52,12.25,7.04,24.51,10.56,36.76c7.97-0.59,15.94-1.18,23.91-1.77L44.14,152.07z"/>
	<path class="st0" d="M40.83,3.09C55.3,1.91,70.58,1.1,86.61,0.81c23.01-0.42,44.6,0.28,64.57,1.69c0.29-0.09,10.25,0.17,9.48,4
		c0.51,0-11.23,145.28-11.23,145.28c-35.72,0.8-71.45,1.59-107.17,2.39c-2.86-46.21-5.72-92.43-8.57-138.64
		c-1.13-3.98-0.2-8.03,2.47-10.38C37.83,3.65,39.75,3.23,40.83,3.09z"/>
	<path class="st0" d="M153,112.9l0.04-0.54l8.04-103.57c0,0,2.72-9.45,7.4-8.17c4.68,1.28,5.02,9.79,5.02,9.79l-10.26,86.86
		c-1.66,1.41-3.68,3.4-5.57,6.08C155.12,106.95,153.76,110.42,153,112.9z"/>
	<path class="st0" d="M40.24,111.81l-0.04-0.53L32.27,8.71c0,0-2.71-9.36-7.39-8.1c-4.68,1.26-5.03,9.69-5.03,9.69L30,96.32
		c1.66,1.4,3.67,3.37,5.57,6.02C38.12,105.91,39.48,109.35,40.24,111.81z"/>
	<polyline class="st1" points="32.19,218.75 33.21,248.79 38.96,248.79 41.51,218.75 32.99,218.47 	"/>
	<polyline class="st1" points="158.34,218.7 157.15,248.73 151.41,248.7 149.02,218.64 157.54,218.41 	"/>
</g>
<g id="Layer_3">
	<path id="_x37_67b7d03-dfb2-4db1-ab35-156fbd388159_3_" class="st2" d="M51.69,108.24c-7.36-2.55-24.95,4.97-27.18,15.08
		c-1.31,5.91,3.07,10.78,4.95,12.63l8.18-4.08l1.15-0.16c-0.84-0.58-3.23-2.37-3.49-5.04c-0.3-3.02,2.3-5.15,3.43-6.07
		c5.94-4.86,16.54-4.25,17.9-4.16C56.16,110.53,53.42,108.83,51.69,108.24z"/>
	<path id="_x37_67b7d03-dfb2-4db1-ab35-156fbd388159_2_" class="st2" d="M137.33,114.4c1.37,0.04,11.97,0.49,17.4,5.92
		c1.03,1.03,3.41,3.41,2.81,6.39c-0.53,2.63-3.08,4.17-3.98,4.67l1.13,0.28l7.73,4.87c2.05-1.65,6.89-6.06,6.18-12.07
		c-1.21-10.28-17.96-19.51-25.54-17.71C141.29,107.17,138.39,108.58,137.33,114.4z"/>
</g>
<g id="Layer_2">
	<path class="st2" d="M148.32,44.61V0.75l-42.9,43.87H69.78l-28.6-29.24v95.05c0,24.23,19.21,43.87,42.9,43.87h64.35V44.61H148.32z"
		/>
	<path class="st3" d="M72.6,59.59h44.37c10.21,0,18.48,8.46,18.48,18.9v0.01c0,10.44-8.27,18.9-18.48,18.9H72.6
		c-10.21,0-18.48-8.46-18.48-18.9v-0.01C54.12,68.05,62.4,59.59,72.6,59.59z"/>
	<ellipse class="st4" cx="115.41" cy="78.49" rx="14.3" ry="14.62"/>
	<path class="st2" d="M73.91,67.01c6.32,0,11.44,5.24,11.44,11.7c0,6.46-5.12,11.7-11.44,11.7c-6.32,0-11.44-5.24-11.44-11.7
		C62.47,72.25,67.59,67.01,73.91,67.01 M73.91,64.08c-7.9,0-14.3,6.55-14.3,14.62s6.4,14.62,14.3,14.62s14.3-6.55,14.3-14.62
		S81.81,64.08,73.91,64.08z"/>
	<path class="st3" d="M101.19,108.51c-0.56-0.57-1.46-0.57-2.02,0c0,0,0,0,0,0L94.79,113l-4.38-4.48c-0.56-0.57-1.46-0.57-2.02,0
		s-0.56,1.5,0,2.07l5,5.12v9.94c0,0.81,0.64,1.46,1.43,1.46c0.79,0,1.43-0.65,1.43-1.46v-9.94l5-5.12
		C101.79,110,101.77,109.07,101.19,108.51C101.2,108.52,101.19,108.51,101.19,108.51z"/>
	<path class="st3" d="M36.19,114.11h28.98c0.59,0,1.07-0.49,1.07-1.1c0-0.61-0.48-1.1-1.07-1.1H36.19c-0.59,0-1.07,0.49-1.07,1.1
		C35.12,113.62,35.6,114.11,36.19,114.11z"/>
	<path class="st3" d="M70.64,117.21H30.73c-0.59,0-1.07,0.49-1.07,1.1s0.48,1.1,1.07,1.1h39.91c0.59,0,1.07-0.49,1.07-1.1
		S71.23,117.21,70.64,117.21z"/>
	<path class="st3" d="M65.17,122.51H36.19c-0.59,0-1.07,0.49-1.07,1.1s0.48,1.1,1.07,1.1h28.98c0.59,0,1.07-0.49,1.07-1.1
		S65.76,122.51,65.17,122.51z"/>
	<path class="st3" d="M124.66,113.03h28.96c0.59,0,1.07-0.49,1.07-1.1s-0.48-1.1-1.07-1.1h-28.96c-0.59,0-1.07,0.49-1.07,1.1
		S124.07,113.03,124.66,113.03z"/>
	<path class="st3" d="M159.1,116.12h-39.91c-0.59,0-1.07,0.49-1.07,1.1s0.48,1.1,1.07,1.1h39.91c0.59,0,1.07-0.49,1.07-1.1
		S159.69,116.12,159.1,116.12L159.1,116.12z"/>
	<path class="st3" d="M153.61,121.38h-28.96c-0.59,0-1.07,0.49-1.07,1.1s0.48,1.1,1.07,1.1h28.96c0.59,0,1.07-0.49,1.07-1.1
		S154.21,121.38,153.61,121.38z"/>
	<path class="st5" d="M201.05,73.58L201.05,73.58c-2.73-7.65-11.01-11.59-18.49-8.79c-7.48,2.79-11.33,11.26-8.6,18.91
		c0.09,0.24,0.18,0.49,0.28,0.72c8.69,24.98-4.07,52.44-28.5,61.33c-9.04,3.29-18.85,3.67-28.1,1.08
		c28.4,15.99,64.1,5.4,79.73-23.64C205.55,107.98,206.89,89.88,201.05,73.58z"/>
</g>
<g id="Layer_7">
	<path class="st6" d="M147.06,145.52h-25.96c-1.54,0.97-3.13,1.9-4.75,2.81c-0.55,0.49-1.15,0.97-1.81,1.44
		c-2.25,1.61-4.51,3.21-6.84,4.75h24.81c11.87,0.03,21.48,7.47,21.52,16.66v2.61c0,1.39,0.05,3.56,0.09,6.75
		c0.06,4.08,4.35,7.35,9.61,7.35c7.83,0,14.18-4.9,14.21-10.96v-7.49C177.88,156.24,164.09,145.56,147.06,145.52z"/>
</g>
<g id="Layer_10">
	<line class="st7" x1="100.8" y1="115.62" x2="100.8" y2="111.91"/>
	<path class="st8" d="M222.47,247.95l48.9-0.3c1.23-0.01,2.23-1.02,2.22-2.25l0-0.36c-0.01-1.23-1.02-2.23-2.25-2.22l-48.9,0.3
		c-1.23,0.01-2.23,1.02-2.22,2.25l0,0.36C220.23,246.96,221.24,247.96,222.47,247.95z"/>
	<path class="st9" d="M200.27,18.28c1.48-1.96,8.14-10.31,19.57-11.74c5.25-0.66,9.61,0.38,12.3,1.28
		c10.88,7.07,13.84,14.11,14.81,18.26c0.26,1.13,0.54,2.7,0.96,16.02c0.17,5.32,0.27,9.71,0.33,12.68
		c-0.23,62.73-0.47,125.46-0.7,188.19"/>
	<path class="st10" d="M170.23,21.33c0,0,11.65-17.28,29.08-6.31s4.37,30.72,4.37,30.72"/>
	<g>
		<g>
			<path class="st11" d="M185.45,41.52c3.92,0,7.68-3.45,7.5-7.5c-0.18-4.06-3.3-7.5-7.5-7.5c-3.92,0-7.68,3.45-7.5,7.5
				C178.13,38.08,181.24,41.52,185.45,41.52L185.45,41.52z"/>
		</g>
	</g>
	<line class="st10" x1="205.41" y1="46.61" x2="168.93" y2="19.77"/>
	<g>
		<g>
			<path class="st12" d="M198.16,24.74c2.76,3.75,3.12,8.39,3.2,12.9c0.04,2.39,3.47,3.53,4.66,1.26c1.65-3.13,2.19-6.54,2.41-10.04
				c0.1-1.6,0.35-3.38-0.12-4.94c-0.45-1.49-1.48-2.77-2.39-4c-2.17-2.94-4.61-5.03-8.09-6.29c-3.28-1.19-6.84-1.87-10.33-1.91
				c-3.48-0.04-6.93,0.66-10.1,2.11c-2.57,1.18-6.34,3.3-6.14,6.57c0.11,1.74,1.43,2.95,2.89,3.71c1.38,0.72,2.73,1.43,4.02,2.32
				c2.32,1.6,4.41,3.48,6.58,5.27c2.6,2.15,5.3,4.21,8.38,5.62c1.76,0.81,3.3,1.54,4.71,2.91c1.36,1.32,2.6,2.76,3.7,4.3
				c1.07,1.49,3.3,1.73,4.32,0c1.49-2.53,1.33-6.03,1.53-8.88c0.21-3.08,0.34-6.18,0.31-9.28c-0.02-2.94-0.92-5.35-3.44-7.02
				c-2.15-1.42-4.87-1.99-7.35-2.53c-2.98-0.65-6.01-1.08-9.05-1.3c-2.8-0.2-5.84-0.42-8.6,0.29c-1.2,0.31-2.56,0.84-3.42,1.77
				c-1.33,1.42-1,3.4,0.2,4.77c1.88,2.15,4.32,3.82,6.85,5.1c2.85,1.44,5.27,3.23,7.73,5.26c2.78,2.29,5.55,4.58,8.33,6.88
				c1.49,1.23,3.53,0.77,4.18-1.1c1.01-2.91,0.86-6.03,0.17-8.99c-0.59-2.53-1.45-5.63-3.25-7.57c-1.8-1.94-4.46-2.72-7-3.08
				c-3.02-0.43-6.06-0.61-9.11-0.72c-1.57-0.06-3.06,0.33-3.74,1.92c-0.68,1.6,0.11,3.2,1.2,4.38c1.87,2.04,4.7,3.01,7.06,4.35
				c2.59,1.47,5.08,3.12,7.56,4.78c1.14,0.76,2.39,1.89,3.72,2.29c1.65,0.49,3.36-0.53,3.77-2.19c0.73-2.95-1.59-6.43-3.63-8.33
				c-2.45-2.29-5.57-3.58-8.69-4.68c-1.27-0.45-2.74,0.51-3.08,1.75c-0.38,1.38,0.47,2.62,1.75,3.08c2.11,0.74,4.29,1.57,6.04,3
				c0.75,0.62,1.42,1.34,1.92,2.17c0.23,0.38,0.42,0.76,0.56,1.17c0.08,0.24,0.1,0.53,0.2,0.75c0.15,0.33-0.05,0.16,0.01-0.01
				c0.21-0.37,0.43-0.74,0.64-1.1c-0.05,0.06-0.09,0.12-0.14,0.17c0.37-0.21,0.74-0.43,1.1-0.64c-0.07,0.03-0.14,0.06-0.21,0.08
				c0.44,0,0.89,0,1.33,0c-0.29-0.05-1.33-0.86-1.84-1.2c-0.77-0.51-1.53-1.02-2.3-1.52c-1.53-1.01-3.07-2.01-4.64-2.96
				c-1.54-0.93-3.11-1.77-4.71-2.58c-0.65-0.33-1.3-0.66-1.91-1.06c-0.27-0.17-0.5-0.35-0.73-0.57c-0.14-0.13-0.28-0.27-0.4-0.42
				c0.12,0.3,0.14,0.26,0.04-0.12c0,0.44,0,0.89,0,1.33c-0.01,0.02-0.02,0.05-0.03,0.07c-0.3,0.3-0.6,0.6-0.9,0.9
				c-0.47,0.24-0.52,0.12,0.01,0.2c0.3,0.04,0.63,0.03,0.94,0.04c0.63,0.03,1.25,0.06,1.88,0.09c1.33,0.07,2.66,0.16,3.99,0.3
				c1.7,0.18,3.84,0.34,5.26,1.41c0.68,0.51,0.99,1.29,1.28,2.06c0.42,1.1,0.79,2.22,1.09,3.36c0.58,2.28,0.72,4.52-0.06,6.76
				c1.39-0.37,2.79-0.74,4.18-1.1c-3.9-3.22-7.74-6.56-11.76-9.64c-1.8-1.38-3.69-2.43-5.7-3.46c-0.97-0.5-1.94-1.02-2.81-1.69
				c-0.48-0.37-0.94-0.8-1.38-1.21c-0.22-0.21-0.45-0.42-0.67-0.63c-0.39-0.48-0.45-0.42-0.19,0.18c-0.11,0.42-0.23,0.84-0.34,1.26
				c-0.45,0.36-0.44,0.4,0.03,0.1c0.11-0.06,0.22-0.11,0.34-0.14c0.38-0.14,0.79-0.24,1.19-0.3c0.8-0.13,1.62-0.13,2.43-0.13
				c1.88,0,3.77,0.09,5.65,0.27c3.65,0.35,7.59,0.94,11.02,2.28c0.95,0.37,2.03,0.91,2.32,1.95c0.21,0.78,0.1,1.68,0.09,2.48
				c-0.01,1.06-0.03,2.12-0.06,3.18c-0.06,2.03-0.17,4.07-0.32,6.1c-0.07,0.97-0.16,1.95-0.25,2.92c-0.08,0.83-0.09,1.72-0.52,2.46
				c1.44,0,2.88,0,4.32,0c-1.8-2.5-3.81-4.97-6.27-6.85c-2.15-1.64-4.8-2.41-7.08-3.86c-4.33-2.75-7.88-6.54-12.13-9.4
				c-0.98-0.65-1.99-1.25-3.04-1.78c-0.12-0.06-1.3-0.69-1.31-0.68c-0.01,0.01,0.51,1.38,0.01,1.24c0,0,0.81-0.73,0.82-0.74
				c2.06-1.57,4.55-2.49,7.07-2.95c2.8-0.51,5.76-0.29,8.52,0.32c2.58,0.56,5.41,1.28,7.38,3.14c1.05,1,1.9,2.17,2.73,3.36
				c0.32,0.46,0.8,0.99,0.95,1.53c0.18,0.65,0.02,1.55-0.02,2.22c-0.15,3.01-0.38,6.11-1.8,8.82c1.55,0.42,3.11,0.84,4.66,1.26
				c-0.09-5.32-0.63-11-3.88-15.42c-0.8-1.09-2.17-1.63-3.42-0.9C197.98,21.95,197.35,23.65,198.16,24.74L198.16,24.74z"/>
		</g>
	</g>
	<line class="st13" x1="207.52" y1="42.42" x2="172.3" y2="16.37"/>
	<line class="st14" x1="177.44" y1="43.6" x2="164.13" y2="59.86"/>
	<line class="st14" x1="183.29" y1="46.48" x2="177.98" y2="65.85"/>
	<line class="st14" x1="174.58" y1="38.86" x2="155.4" y2="47.31"/>
	<line class="st14" x1="173.04" y1="33.68" x2="155.27" y2="34.61"/>
	<line class="st14" x1="188.86" y1="46.71" x2="192.96" y2="64.37"/>
</g>
<g id="Layer_9">
	<path class="st3" d="M42.08,95.3c17.61,5.78,35.22,11.56,52.83,17.34c17.45-5.78,34.91-11.56,52.36-17.34l0.55,2.76
		c-17.53,5.63-35.06,11.27-52.6,16.9c-17.97-5.4-35.94-10.8-53.91-16.21L42.08,95.3z"/>
</g>
<g id="Layer_4">
	<path class="st15" d="M40.68,97.37c18.07,5.42,36.14,10.83,54.21,16.25c17.83-5.42,35.66-10.83,53.49-16.25v65.94
		c-17.57,5.08-35.13,10.16-52.7,15.25c-17.84-5.6-35.69-11.19-53.53-16.79C41.66,140.3,41.17,118.84,40.68,97.37z"/>
	<line class="st16" x1="95.5" y1="113.01" x2="95.96" y2="178.36"/>
	<line class="st17" x1="109.49" y1="127.44" x2="140.85" y2="118.26"/>
	<line class="st18" x1="104.97" y1="143.76" x2="141.92" y2="132.8"/>
	<line class="st18" x1="107.5" y1="159.16" x2="144.45" y2="148.2"/>
</g>
<g id="Layer_8">
	<rect x="99.85" y="121.32" class="st19" width="6.48" height="34.74"/>
	<rect x="135.6" y="115.37" class="st19" width="6.32" height="8.16"/>
	<rect x="105.37" y="122.8" class="st19" width="4.9" height="9.73"/>
	<rect x="106.3" y="152.64" class="st19" width="9.43" height="9.89"/>
	<rect x="133.39" y="145.98" class="st19" width="12.56" height="8.6"/>
	<rect x="140.69" y="130.58" class="st19" width="2.13" height="6.26"/>
</g>
<g id="Layer_5">
	<path id="_x33_1ee5fd4-49fa-4189-9013-f12865f7ae78_3_" class="st2" d="M46.87,136c2.37-1.95,1.6-4.47-1.72-5.64l-4.93-1.74
		c-3.32-1.16-7.93-0.53-10.31,1.41l-1.16,0.95c-2.37,1.95-1.6,4.47,1.72,5.64l1.4,0.49c2.41,0.78,4.82,1.57,7.23,2.35
		c0.47,0,1.35-0.04,2.33-0.31c1.36-0.38,2.06-0.97,2.31-1.2c0.47-0.27,0.93-0.54,1.4-0.82C45.71,136.76,46.29,136.38,46.87,136z"/>
	<path id="_x33_1ee5fd4-49fa-4189-9013-f12865f7ae78_1_" class="st2" d="M146.71,136.16c0.44,0.32,0.87,0.63,1.31,0.95
		c0.22,0.26,0.87,0.92,2.18,1.43c0.95,0.37,1.82,0.49,2.29,0.54c2.48-0.54,4.95-1.08,7.43-1.62l1.44-0.35
		c3.42-0.83,4.43-3.27,2.27-5.44l-1.05-1.06c-2.17-2.17-6.7-3.26-10.12-2.43l-5.08,1.24c-3.42,0.83-4.43,3.27-2.27,5.44
		C145.64,135.29,146.17,135.72,146.71,136.16z"/>
</g>
</svg>
