<?xml version="1.0" encoding="utf-8"?>
<!-- Generator: Adobe Illustrator 24.1.3, SVG Export Plug-In . SVG Version: 6.00 Build 0)  -->
<svg version="1.1" xmlns="http://www.w3.org/2000/svg" xmlns:xlink="http://www.w3.org/1999/xlink" x="0px" y="0px"
	 viewBox="0 0 280.52 222.29" style="enable-background:new 0 0 280.52 222.29;" xml:space="preserve">
<style type="text/css">
	.st0{fill:#CA9E67;stroke:#B17F4A;stroke-miterlimit:10;}
	.st1{fill:#B4814B;stroke:#9D663B;stroke-miterlimit:10;}
	.st2{fill:#E52629;}
	.st3{fill:#FFFFFF;}
	.st4{fill:#020203;}
	.st5{display:none;fill:#E52629;}
	.st6{fill:#D9242B;}
	.st7{fill:#9D9D9C;stroke:#878787;stroke-miterlimit:10;}
	.st8{fill:#575756;stroke:#575756;stroke-miterlimit:10;}
	.st9{fill:none;stroke:#706F6F;stroke-width:4;stroke-miterlimit:10;}
	.st10{fill:none;stroke:#575756;stroke-width:4;stroke-miterlimit:10;}
	.st11{fill:#FAF19B;}
	.st12{fill:#575756;}
	.st13{fill:none;stroke:#B2B2B2;stroke-miterlimit:10;}
	.st14{fill:none;stroke:#FBEE6C;stroke-width:3;stroke-miterlimit:10;}
	.st15{fill:#DDDDD5;stroke:#7B6A58;stroke-width:0.5;stroke-miterlimit:10;}
	.st16{opacity:0.61;fill:#DDDDD5;stroke:#7B6A58;stroke-width:4;stroke-miterlimit:10;}
	.st17{fill:#DDDDD5;stroke:#878787;stroke-width:6;stroke-miterlimit:10;}
	.st18{fill:#DDDDD5;stroke:#878787;stroke-width:4;stroke-miterlimit:10;}
	.st19{fill:#DDDDD5;}
</style>
<g id="Layer_1">
	<path class="st0" d="M196.78,221.79H12.5c-6.6,0-12-5.4-12-12v-44.25c0-6.6,5.4-12,12-12h184.28c6.6,0,12,5.4,12,12v44.25
		C208.78,216.39,203.38,221.79,196.78,221.79z"/>
	<path class="st0" d="M166.95,3.87H39.58c-6.6,0-12,5.4-12,12v127.37c0,6.6,5.4,12,12,12h127.37c6.6,0,12-5.4,12-12V15.87
		C178.95,9.27,173.55,3.87,166.95,3.87z"/>
	<g id="Layer_6">
	</g>
	<path class="st1" d="M196.78,160.51h-10.26c-6.6,0-12-5.4-12-12V83.32c0-6.6,5.4-12,12-12h10.26c6.6,0,12,5.4,12,12v65.19
		C208.78,155.11,203.38,160.51,196.78,160.51z"/>
	<path class="st1" d="M22.76,163.06H12.5c-6.6,0-12-5.4-12-12V85.87c0-6.6,5.4-12,12-12h10.26c6.6,0,12,5.4,12,12v65.19
		C34.76,157.66,29.36,163.06,22.76,163.06z"/>
	<path class="st1" d="M172.74,165.96H38.9c-3.42,0-6.21-2.79-6.21-6.21v0c0-3.42,2.79-6.21,6.21-6.21h133.83
		c3.42,0,6.21,2.79,6.21,6.21v0C178.95,163.16,176.15,165.96,172.74,165.96z"/>
</g>
<g id="Layer_3">
	<path id="_x37_67b7d03-dfb2-4db1-ab35-156fbd388159" class="st2" d="M54.73,107.49c-7.36-2.55-24.95,4.97-27.18,15.08
		c-1.31,5.91,3.07,10.78,4.95,12.63l8.18-4.08l1.15-0.16c-0.84-0.58-3.23-2.37-3.49-5.04c-0.3-3.02,2.3-5.15,3.43-6.07
		c5.94-4.86,16.54-4.25,17.9-4.16C59.2,109.78,56.46,108.09,54.73,107.49z"/>
	<path id="_x37_67b7d03-dfb2-4db1-ab35-156fbd388159_1_" class="st2" d="M139.24,110.07c1.37,0.04,11.97,0.49,17.4,5.92
		c1.03,1.03,3.41,3.41,2.81,6.39c-0.53,2.63-3.08,4.17-3.98,4.67l1.13,0.28l7.73,4.87c2.05-1.65,6.89-6.06,6.18-12.07
		c-1.21-10.28-17.96-19.51-25.54-17.71C143.2,102.84,140.3,104.25,139.24,110.07z"/>
</g>
<g id="Layer_2">
	<path class="st2" d="M151.36,43.87V0l-42.9,43.87H72.82l-28.6-29.24v95.05c0,24.23,19.21,43.87,42.9,43.87h64.35V43.87H151.36z"/>
	<path class="st3" d="M75.64,58.84h44.37c10.21,0,18.48,8.46,18.48,18.9v0.01c0,10.44-8.27,18.9-18.48,18.9H75.64
		c-10.21,0-18.48-8.46-18.48-18.9v-0.01C57.16,67.3,65.43,58.84,75.64,58.84z"/>
	<ellipse class="st4" cx="118.45" cy="77.74" rx="14.3" ry="14.62"/>
	<path class="st2" d="M76.95,66.26c6.32,0,11.44,5.24,11.44,11.7c0,6.46-5.12,11.7-11.44,11.7c-6.32,0-11.44-5.24-11.44-11.7
		C65.51,71.5,70.63,66.26,76.95,66.26 M76.95,63.34c-7.9,0-14.3,6.55-14.3,14.62s6.4,14.62,14.3,14.62s14.3-6.55,14.3-14.62
		S84.85,63.34,76.95,63.34z"/>
	<path class="st3" d="M104.23,107.77c-0.56-0.57-1.46-0.57-2.02,0c0,0,0,0,0,0l-4.38,4.48l-4.38-4.48c-0.56-0.57-1.46-0.57-2.02,0
		s-0.56,1.5,0,2.07l5,5.12v9.94c0,0.81,0.64,1.46,1.43,1.46s1.43-0.65,1.43-1.46v-9.94l5-5.12
		C104.83,109.25,104.81,108.32,104.23,107.77C104.23,107.77,104.23,107.77,104.23,107.77z"/>
	<path class="st3" d="M39.23,113.37h28.98c0.59,0,1.07-0.49,1.07-1.1c0-0.61-0.48-1.1-1.07-1.1H39.23c-0.59,0-1.07,0.49-1.07,1.1
		C38.16,112.88,38.64,113.37,39.23,113.37z"/>
	<path class="st3" d="M73.67,116.47H33.77c-0.59,0-1.07,0.49-1.07,1.1c0,0.61,0.48,1.1,1.07,1.1h39.91c0.59,0,1.07-0.49,1.07-1.1
		C74.75,116.96,74.27,116.47,73.67,116.47z"/>
	<path class="st3" d="M68.21,121.76H39.23c-0.59,0-1.07,0.49-1.07,1.1s0.48,1.1,1.07,1.1h28.98c0.59,0,1.07-0.49,1.07-1.1
		S68.8,121.76,68.21,121.76z"/>
	<path class="st3" d="M127.7,112.28h28.96c0.59,0,1.07-0.49,1.07-1.1s-0.48-1.1-1.07-1.1H127.7c-0.59,0-1.07,0.49-1.07,1.1
		S127.1,112.28,127.7,112.28z"/>
	<path class="st3" d="M162.14,115.37h-39.91c-0.59,0-1.07,0.49-1.07,1.1s0.48,1.1,1.07,1.1h39.91c0.59,0,1.07-0.49,1.07-1.1
		S162.73,115.37,162.14,115.37L162.14,115.37z"/>
	<path class="st3" d="M156.65,120.64H127.7c-0.59,0-1.07,0.49-1.07,1.1s0.48,1.1,1.07,1.1h28.96c0.59,0,1.07-0.49,1.07-1.1
		S157.24,120.64,156.65,120.64z"/>
	<path class="st5" d="M204.08,72.83L204.08,72.83c-2.73-7.65-11.01-11.59-18.49-8.79c-7.48,2.79-11.33,11.26-8.6,18.91
		c0.09,0.24,0.18,0.49,0.28,0.72c8.69,24.98-4.07,52.44-28.5,61.33c-9.04,3.29-18.85,3.67-28.1,1.08
		c28.4,15.99,64.1,5.4,79.73-23.64C208.58,107.23,209.93,89.14,204.08,72.83z"/>
</g>
<g id="Layer_7">
	<path class="st6" d="M151.89,144.78h-25.96c-1.54,0.97-3.13,1.9-4.75,2.81c-0.55,0.49-1.15,0.97-1.81,1.44
		c-2.25,1.61-4.51,3.21-6.84,4.75h24.81c11.87,0.03,21.48,7.47,21.52,16.66v2.61c0,1.39,0.05,3.56,0.09,6.75
		c0.06,4.08,4.35,7.35,9.61,7.35c7.83,0,14.18-4.9,14.21-10.96v-7.49C182.72,155.5,168.92,144.82,151.89,144.78z"/>
</g>
<g id="Layer_10">
	<line class="st7" x1="107.22" y1="115.84" x2="107.22" y2="112.13"/>
	<path class="st8" d="M228.89,221.73l48.9-0.3c1.23-0.01,2.23-1.02,2.22-2.25l0-0.36c-0.01-1.23-1.02-2.23-2.25-2.22l-48.9,0.3
		c-1.23,0.01-2.23,1.02-2.22,2.25l0,0.36C226.65,220.74,227.66,221.74,228.89,221.73z"/>
	<path class="st9" d="M206.69,17.22c2.12-2.34,8.88-9.17,19.58-10.48c4.62-0.57,8.48,0.11,10.92,0.74
		c3.23,2.47,10.76,8.94,14.96,20.41c3.45,9.42,2.99,17.72,2.49,21.86c-0.28,55.95-0.55,111.91-0.83,167.86"/>
	<path class="st10" d="M176.65,21.55c0,0,11.65-17.28,29.08-6.31s4.37,30.72,4.37,30.72"/>
	<g>
		<g>
			<path class="st11" d="M191.87,41.74c3.92,0,7.68-3.45,7.5-7.5c-0.18-4.06-3.3-7.5-7.5-7.5c-3.92,0-7.68,3.45-7.5,7.5
				C184.55,38.3,187.66,41.74,191.87,41.74L191.87,41.74z"/>
		</g>
	</g>
	<line class="st10" x1="211.83" y1="46.83" x2="175.35" y2="19.99"/>
	<g>
		<g>
			<path class="st12" d="M204.58,24.96c2.76,3.75,3.12,8.39,3.2,12.9c0.04,2.39,3.47,3.53,4.66,1.26c1.65-3.13,2.19-6.54,2.41-10.04
				c0.1-1.6,0.35-3.38-0.12-4.94c-0.45-1.49-1.48-2.77-2.39-4c-2.17-2.94-4.61-5.03-8.09-6.29c-3.28-1.19-6.84-1.87-10.33-1.91
				c-3.48-0.04-6.93,0.66-10.1,2.11c-2.57,1.18-6.34,3.3-6.14,6.57c0.11,1.74,1.43,2.95,2.89,3.71c1.38,0.72,2.73,1.43,4.02,2.32
				c2.32,1.6,4.41,3.48,6.58,5.27c2.6,2.15,5.3,4.21,8.38,5.62c1.76,0.81,3.3,1.54,4.71,2.91c1.36,1.32,2.6,2.76,3.7,4.3
				c1.07,1.49,3.3,1.73,4.32,0c1.49-2.53,1.33-6.03,1.53-8.88c0.21-3.08,0.34-6.18,0.31-9.28c-0.02-2.94-0.92-5.35-3.44-7.02
				c-2.15-1.42-4.87-1.99-7.34-2.53c-2.98-0.65-6.01-1.08-9.05-1.3c-2.8-0.2-5.84-0.42-8.6,0.29c-1.2,0.31-2.56,0.84-3.42,1.77
				c-1.33,1.42-1,3.4,0.2,4.77c1.88,2.15,4.32,3.82,6.85,5.1c2.85,1.44,5.27,3.23,7.73,5.26c2.78,2.29,5.55,4.58,8.33,6.88
				c1.49,1.23,3.53,0.77,4.18-1.1c1.01-2.91,0.86-6.03,0.17-8.99c-0.59-2.53-1.45-5.63-3.25-7.57c-1.8-1.94-4.46-2.72-7-3.08
				c-3.02-0.43-6.06-0.61-9.11-0.72c-1.57-0.06-3.06,0.33-3.74,1.92c-0.68,1.6,0.11,3.2,1.2,4.38c1.87,2.04,4.7,3.01,7.06,4.35
				c2.59,1.47,5.08,3.12,7.56,4.78c1.14,0.76,2.39,1.89,3.72,2.29c1.65,0.49,3.36-0.53,3.77-2.19c0.73-2.95-1.59-6.43-3.63-8.33
				c-2.45-2.29-5.57-3.58-8.69-4.68c-1.27-0.45-2.74,0.51-3.08,1.75c-0.38,1.38,0.47,2.62,1.75,3.08c2.11,0.74,4.29,1.57,6.04,3
				c0.75,0.62,1.42,1.34,1.92,2.17c0.23,0.38,0.42,0.76,0.56,1.17c0.08,0.24,0.1,0.53,0.2,0.75c0.15,0.33-0.05,0.16,0.01-0.01
				c0.21-0.37,0.43-0.74,0.64-1.1c-0.05,0.06-0.09,0.12-0.14,0.17c0.37-0.21,0.74-0.43,1.1-0.64c-0.07,0.03-0.14,0.06-0.21,0.08
				c0.44,0,0.89,0,1.33,0c-0.29-0.05-1.33-0.86-1.84-1.2c-0.77-0.51-1.53-1.02-2.3-1.52c-1.53-1.01-3.07-2.01-4.64-2.96
				c-1.54-0.93-3.11-1.77-4.71-2.58c-0.65-0.33-1.3-0.66-1.91-1.06c-0.27-0.17-0.5-0.35-0.73-0.57c-0.14-0.13-0.28-0.27-0.4-0.42
				c0.12,0.3,0.14,0.26,0.04-0.12c0,0.44,0,0.89,0,1.33c-0.01,0.02-0.02,0.05-0.03,0.07c-0.3,0.3-0.6,0.6-0.9,0.9
				c-0.47,0.24-0.52,0.12,0.01,0.2c0.3,0.04,0.63,0.03,0.94,0.04c0.63,0.03,1.25,0.06,1.88,0.09c1.33,0.07,2.66,0.16,3.99,0.3
				c1.7,0.18,3.84,0.34,5.26,1.41c0.68,0.51,0.99,1.29,1.28,2.06c0.42,1.1,0.79,2.22,1.09,3.36c0.58,2.28,0.72,4.52-0.06,6.76
				c1.39-0.37,2.79-0.74,4.18-1.1c-3.9-3.22-7.74-6.56-11.76-9.64c-1.8-1.38-3.69-2.43-5.7-3.46c-0.97-0.5-1.94-1.02-2.81-1.69
				c-0.48-0.37-0.94-0.8-1.38-1.21c-0.22-0.21-0.45-0.42-0.67-0.63c-0.39-0.48-0.45-0.42-0.19,0.18c-0.11,0.42-0.23,0.84-0.34,1.26
				c-0.45,0.36-0.44,0.4,0.03,0.1c0.11-0.06,0.22-0.11,0.34-0.14c0.38-0.14,0.79-0.24,1.19-0.3c0.8-0.13,1.62-0.13,2.43-0.13
				c1.88,0,3.77,0.09,5.65,0.27c3.65,0.35,7.59,0.94,11.02,2.28c0.95,0.37,2.03,0.91,2.32,1.95c0.21,0.78,0.1,1.68,0.09,2.48
				c-0.01,1.06-0.03,2.12-0.06,3.18c-0.06,2.03-0.17,4.07-0.32,6.1c-0.07,0.97-0.16,1.95-0.25,2.92c-0.08,0.83-0.09,1.72-0.52,2.46
				c1.44,0,2.88,0,4.32,0c-1.8-2.5-3.81-4.97-6.27-6.85c-2.15-1.64-4.8-2.41-7.08-3.86c-4.33-2.75-7.88-6.54-12.13-9.4
				c-0.98-0.65-1.99-1.25-3.04-1.78c-0.12-0.06-1.3-0.69-1.31-0.68c-0.01,0.01,0.51,1.38,0.01,1.24c0,0,0.81-0.73,0.82-0.74
				c2.06-1.57,4.55-2.49,7.07-2.95c2.8-0.51,5.76-0.29,8.52,0.32c2.58,0.56,5.41,1.28,7.38,3.14c1.05,1,1.9,2.17,2.73,3.36
				c0.32,0.46,0.8,0.99,0.95,1.53c0.18,0.65,0.02,1.55-0.02,2.22c-0.15,3.01-0.38,6.11-1.8,8.82c1.55,0.42,3.11,0.84,4.66,1.26
				c-0.09-5.32-0.63-11-3.88-15.42c-0.8-1.09-2.17-1.63-3.42-0.9C204.4,22.17,203.77,23.87,204.58,24.96L204.58,24.96z"/>
		</g>
	</g>
	<line class="st13" x1="213.94" y1="42.64" x2="178.72" y2="16.59"/>
	<line class="st14" x1="183.86" y1="43.82" x2="170.55" y2="60.08"/>
	<line class="st14" x1="189.71" y1="46.7" x2="184.4" y2="66.07"/>
	<line class="st14" x1="181" y1="39.08" x2="161.82" y2="47.53"/>
	<line class="st14" x1="179.46" y1="33.9" x2="161.69" y2="34.83"/>
	<line class="st14" x1="195.28" y1="46.93" x2="199.38" y2="64.59"/>
</g>
<g id="Layer_9">
	<polygon class="st3" points="44.58,94.55 96.54,110.95 149.77,94.55 150.32,97.31 98.89,114.13 43.81,98.01 	"/>
</g>
<g id="Layer_4">
	<path class="st15" d="M43.76,96.65l52.82,15.65l54.89-15.65v65.94c-17.57,5.08-35.13,10.16-52.7,15.25
		c-17.84-5.6-35.69-11.19-53.53-16.79C44.74,139.58,44.25,118.11,43.76,96.65z"/>
	<line class="st16" x1="97.02" y1="111.89" x2="98.89" y2="177.48"/>
	<line class="st17" x1="112.53" y1="126.69" x2="143.89" y2="117.52"/>
	<line class="st18" x1="108.01" y1="143.01" x2="144.96" y2="132.05"/>
	<line class="st18" x1="110.54" y1="158.42" x2="147.48" y2="147.46"/>
</g>
<g id="Layer_8">
	<rect x="102.88" y="120.64" class="st19" width="6.45" height="34.6"/>
	<rect x="138.49" y="114.7" class="st19" width="6.3" height="8.13"/>
	<rect x="108.38" y="122.1" class="st19" width="4.88" height="9.69"/>
	<rect x="109.33" y="151.9" class="st19" width="9.43" height="9.89"/>
	<rect x="136.43" y="145.23" class="st19" width="12.56" height="8.6"/>
	<rect x="143.72" y="129.83" class="st19" width="2.13" height="6.26"/>
</g>
<g id="Layer_5">
	<path id="_x33_1ee5fd4-49fa-4189-9013-f12865f7ae78" class="st2" d="M49.91,135.26c2.37-1.95,1.6-4.47-1.72-5.64l-4.93-1.74
		c-3.32-1.16-7.93-0.53-10.31,1.41l-1.16,0.95c-2.37,1.95-1.6,4.47,1.72,5.64l1.4,0.49c2.41,0.78,4.82,1.57,7.23,2.35
		c0.47,0,1.35-0.04,2.33-0.31c1.36-0.38,2.06-0.97,2.31-1.2c0.47-0.27,0.93-0.54,1.4-0.82C48.75,136.02,49.33,135.64,49.91,135.26z"
		/>
	<path id="_x33_1ee5fd4-49fa-4189-9013-f12865f7ae78_2_" class="st2" d="M148.62,131.83c0.44,0.32,0.87,0.63,1.31,0.95
		c0.22,0.26,0.87,0.92,2.18,1.43c0.95,0.37,1.82,0.49,2.29,0.54c2.48-0.54,4.95-1.08,7.43-1.62l1.44-0.35
		c3.42-0.83,4.43-3.27,2.27-5.44l-1.05-1.06c-2.17-2.17-6.7-3.26-10.12-2.43l-5.08,1.24c-3.42,0.83-4.43,3.27-2.27,5.44
		C147.55,130.96,148.09,131.39,148.62,131.83z"/>
</g>
</svg>
