<?xml version="1.0" encoding="utf-8"?>
<!-- Generator: Adobe Illustrator 22.1.0, SVG Export Plug-In . SVG Version: 6.00 Build 0)  -->
<svg version="1.1" id="Réteg_1" xmlns="http://www.w3.org/2000/svg" xmlns:xlink="http://www.w3.org/1999/xlink" x="0px" y="0px"
	 viewBox="0 0 821 553" style="enable-background:new 0 0 821 553;" xml:space="preserve">
<style type="text/css">
	.st0{fill:url(#SVGID_1_);}
	.st1{opacity:0.3;fill:url(#SVGID_2_);}
	.st2{fill:#859AFF;}
	.st3{opacity:0.5;fill:#859AFF;}
	.st4{fill:#414042;}
	.st5{fill:#FFFFFF;}
	.st6{fill:none;stroke:#414042;stroke-width:24;stroke-linecap:round;stroke-miterlimit:10;}
	.st7{fill:none;stroke:#859AFF;stroke-width:6;stroke-miterlimit:10;}
	.st8{fill:none;stroke:#C1272D;stroke-width:7;stroke-miterlimit:10;}
	.st9{opacity:0.2;fill:#5968B2;}
	.st10{opacity:0.8;fill:#29ABE2;}
	.st11{fill:#29ABE2;}
	.st12{fill:#C1272D;}
	.st13{fill:#ED1C24;}
	.st14{opacity:0.2;fill:#FFFFFF;}
	.st15{fill:#5968B2;}
	.st16{fill:#F7931E;}
	.st17{fill:#FBB03B;}
</style>
<title>05_fears_cat</title>
<g>
	<linearGradient id="SVGID_1_" gradientUnits="userSpaceOnUse" x1="268.8588" y1="698.6398" x2="517.9017" y2="48.3999">
		<stop  offset="0" style="stop-color:#FBB03B"/>
		<stop  offset="1" style="stop-color:#FBB03B;stop-opacity:0"/>
	</linearGradient>
	<polygon class="st0" points="364.9,1.9 805.8,1.9 526.6,409.4 109.3,410.1 	"/>
	<linearGradient id="SVGID_2_" gradientUnits="userSpaceOnUse" x1="585.9613" y1="370.1609" x2="690.3696" y2="219.3493">
		<stop  offset="0" style="stop-color:#FBB03B"/>
		<stop  offset="1" style="stop-color:#FBB03B;stop-opacity:0"/>
	</linearGradient>
	<polygon class="st1" points="526.6,409.4 587.4,409.4 743.3,191.8 675.7,191.8 	"/>
</g>
<g>
	<polygon class="st2" points="109.3,409.5 180.7,472.3 399.4,549.6 498.3,409.5 	"/>
	<polygon class="st3" points="109.3,409.5 67.5,409.5 3,409.5 180.7,472.3 	"/>
</g>
<g>
	<rect x="410.8" y="329.5" class="st4" width="107" height="16.4"/>
	<rect x="432.5" y="342.7" class="st4" width="63.6" height="16.4"/>
	<path class="st4" d="M464.3,336.7L464.3,336.7c-3.9,0-7,3.1-7,7v47.4c0,3.9,3.1,7,7,7h0c3.9,0,7-3.1,7-7v-47.4
		C471.3,339.8,468.2,336.7,464.3,336.7z"/>
	<g>
		<path class="st5" d="M568.2,137.9H360.4c-25.7,0-46.7,21-46.7,46.7V283c0,25.7,21,46.7,46.7,46.7h207.8c25.7,0,46.7-21,46.7-46.7
			v-98.5C614.8,158.9,593.8,137.9,568.2,137.9z"/>
	</g>
	<path class="st6" d="M505.9,402.4c0-13-10.6-23.6-23.6-23.6h-36c-13,0-23.6,10.6-23.6,23.6"/>
	<rect x="434.9" y="122.1" class="st4" width="58.7" height="21.9"/>
</g>
<path class="st7" d="M379.8,175.9h-19.3c-2.9,0-5.4,2.4-5.4,5.4v19.3c0,2.9,2.4,5.4,5.4,5.4h19.3c2.9,0,5.4-2.4,5.4-5.4v-19.3
	C385.2,178.3,382.8,175.9,379.8,175.9z"/>
<rect x="403.9" y="194" class="st2" width="66" height="11.9"/>
<path class="st7" d="M379.8,225.7h-19.3c-2.9,0-5.4,2.4-5.4,5.4v19.3c0,2.9,2.4,5.4,5.4,5.4h19.3c2.9,0,5.4-2.4,5.4-5.4V231
	C385.2,228.1,382.8,225.7,379.8,225.7z"/>
<rect x="403.9" y="225.1" class="st2" width="134.8" height="11.9"/>
<rect x="403.9" y="175.9" class="st2" width="134.8" height="11.9"/>
<rect x="403.9" y="243.8" class="st2" width="66" height="11.9"/>
<path class="st7" d="M379.8,274.8h-19.3c-2.9,0-5.4,2.4-5.4,5.4v19.3c0,2.9,2.4,5.4,5.4,5.4h19.3c2.9,0,5.4-2.4,5.4-5.4v-19.3
	C385.2,277.2,382.8,274.8,379.8,274.8z"/>
<rect x="403.9" y="274.2" class="st2" width="134.8" height="11.9"/>
<rect x="403.9" y="292.9" class="st2" width="66" height="11.9"/>
<polyline class="st8" points="359.8,185.5 371.2,196.8 394.4,173.6 "/>
<polyline class="st8" points="359.8,236.1 371.2,247.4 394.4,224.2 "/>
<polyline class="st8" points="359.8,287.9 371.2,299.2 394.4,276 "/>
<polygon class="st9" points="232.2,409.5 322.7,462.8 549.8,462.8 587.4,409.5 "/>
<g>
	<path class="st5" d="M486.5,288.1c-23.2,0.2-46.1,10.9-61,30.8l0,0l-0.2-0.1c-11.7,17.9-30.7,31-53.4,34.3l0,0
		c-41.9,6.1-81.1-23.2-87.1-65.1l-4.6-31.8L486.5,288.1z"/>
	<path class="st10" d="M486.5,288.1c-23.2,0.2-46.1,10.9-61,30.8l0,0l-0.2-0.1c-11.7,17.9-30.7,31-53.4,34.3l0,0
		c-41.9,6.1-81.1-23.2-87.1-65.1l-4.6-31.8L486.5,288.1z"/>
	<path class="st11" d="M317.9,262.1l-37.7-5.8l4.6,31.8c6.1,41.9,45.3,71.1,87.1,65.1h0c14.7-2.1,27.8-8.3,38.4-17.3L317.9,262.1z"
		/>
	<g>
		<path class="st12" d="M298,337.4c-10-1.3-19.9-0.4-29.4,2.6c-4.6,1.5-7.3,6.2-6.3,10.9c1,4.7,5.4,7.9,10.2,7.4
			c3.3-0.3,6.6-0.3,9.9,0.1c22.9,3,39.2,24.1,36.2,47c-0.6,4.7-2,9.2-4.1,13.4c-1.9,2.6-3.2,5.7-3.6,9c-0.7,5.1,0.7,10.2,3.9,14.4
			c3.2,4.1,7.7,6.8,12.9,7.4c8,1.1,15.9-3,19.7-10.1c3.4-5.6,5.9-11.5,7.5-17.7c0.7-2.8,1.3-5.6,1.7-8.5
			C361.1,376.3,335,342.3,298,337.4z"/>
		<path class="st13" d="M261.8,218.2L221,205.2v-22c0,0-49.5,32.8-62.2,77.1c-0.8,2.5-1.4,5-1.8,7.6c0,0,0,0,0,0c0,0,0,0,0,0
			c-0.7,5.4-0.4,10.9,1.1,16.3l21.1,74.6l106.2,0.1v-91.1v-37.1V190L261.8,218.2z"/>
		<g>
			<path class="st13" d="M131.6,198.9l2.8-3.8c2.6-3.6,7.6-4.4,11.2-1.8l0.5,0.4c3.6,2.6,4.4,7.6,1.8,11.2l-2.8,3.8
				c-2.6,3.6-7.6,4.4-11.2,1.8l-0.5-0.4C129.8,207.5,129,202.4,131.6,198.9z"/>
		</g>
		<polygon class="st13" points="174.6,269.5 147.5,204.2 134.7,208.6 165.7,268.8 		"/>
		<g>
			<path class="st13" d="M131.6,198.9l2.8-3.8c2.6-3.6,7.6-4.4,11.2-1.8l0.5,0.4c3.6,2.6,4.4,7.6,1.8,11.2l-2.8,3.8
				c-2.6,3.6-7.6,4.4-11.2,1.8l-0.5-0.4C129.8,207.5,129,202.4,131.6,198.9z"/>
		</g>
		<polygon class="st13" points="174.6,269.5 147.5,204.2 134.7,208.6 165.7,268.8 		"/>
		<g>
			<path class="st12" d="M276.4,334.8l2.1,2.9c2.3,3.2,1.6,7.8-1.6,10.1v0c-3.2,2.3-7.8,1.6-10.1-1.6l-2.1-2.9
				c-2.3-3.2-1.6-7.8,1.6-10.1l0,0C269.5,330.8,274.1,331.5,276.4,334.8z"/>
		</g>
		<path class="st12" d="M268.7,344.3c-2.3,0-4.5-1.2-5.7-3.3c-1.7-3.1-0.6-7.1,2.5-8.8l13.5-7.6l-4.3-6.8c-2.3-2.7-2.2-6.2,0.5-8.5
			c2.7-2.3,6.3-1.8,8.6,1l15.3,17.9l-27.3,15.3C270.9,344,269.8,344.3,268.7,344.3z"/>
		<path class="st14" d="M247,307.4l27.8-104.7l-13,15.5L221,205.2v-22c0,0-49.5,32.8-62.2,77.1c-0.8,2.5-1.4,5-1.8,7.6c0,0,0,0,0,0
			c0,0,0,0,0,0c-0.7,5.4-0.4,10.9,1.1,16.3l7.8,28.5l58.9,9.2C234.8,323.4,244.4,317.2,247,307.4z"/>
		<path class="st5" d="M200,298.9c-0.8-0.3-1.8,0.1-2.1,0.9c-1,2.5-3.8,3.7-6.3,2.7c-2.5-1-3.7-3.8-2.7-6.3l1-2.5l8.6-3.6
			c0.8-0.4,1.2-1.3,0.9-2.1c-0.4-0.8-1.3-1.2-2.1-0.9l-7.6,3.2l-3.2-7.6c-0.4-0.8-1.3-1.2-2.1-0.9c-0.8,0.4-1.2,1.3-0.9,2.1l3.6,8.4
			c0,0,0,0,0,0l-1,2.6c-1.7,4.1,0.3,8.9,4.5,10.5c4.1,1.7,8.9-0.3,10.5-4.5C201.3,300.2,200.9,299.3,200,298.9z"/>
		<path class="st5" d="M183.7,262l45.4,16c10.4,3.7,21.9-1.8,25.6-12.2c3.7-10.4-1.8-21.9-12.2-25.6l-45.4-16
			c-10.4-3.7-21.9,1.8-25.6,12.2C167.8,246.9,173.2,258.4,183.7,262"/>
		<path class="st15" d="M248.7,263.8c-2.9,8.1-11.7,12.3-19.8,9.4c-8.1-2.9-12.3-11.7-9.4-19.8c2.9-8.1,11.7-12.3,19.8-9.4
			C247.3,246.9,251.6,255.7,248.7,263.8"/>
		<path class="st13" d="M195.7,232.2c6.4,2.3,9.8,9.4,7.6,15.8c-2.3,6.4-9.4,9.8-15.8,7.6c-6.4-2.3-9.8-9.4-7.6-15.8
			C182.2,233.3,189.3,229.9,195.7,232.2 M196.8,229.2c-8.1-2.9-16.9,1.4-19.8,9.4c-2.9,8.1,1.4,16.9,9.4,19.8
			c8.1,2.9,16.9-1.4,19.8-9.4C209.1,240.9,204.8,232.1,196.8,229.2"/>
		<g>
			<path class="st16" d="M179.3,332.2c-0.9-9.8,4.6-17.4,13.2-18.1c5.5-0.5,10.1,2.1,12.5,7.3l-5.6,4.5c-1.7-3-3.9-4.2-6.3-4
				c-3.9,0.3-6.6,3.9-6.1,9.7c0.5,5.7,3.8,8.8,7.7,8.4c2.4-0.2,4.4-1.7,5.5-5l6.3,3.5c-1.5,5.4-5.5,8.8-11.1,9.3
				C186.9,348.5,180.1,342.1,179.3,332.2z"/>
		</g>
	</g>
</g>
<g>
	<path class="st16" d="M298.9,378.4V365c0-3.4-2.7-6.1-6.1-6.1h-54.7c-2.8,0-5.1,1.8-5.8,4.4c-0.8-2.5-3.1-4.4-5.8-4.4h-54.7
		c-3.4,0-6.1,2.7-6.1,6.1v13.4c0,2.7,1.8,5,4.2,5.8c-2.4,0.8-4.2,3.1-4.2,5.8v13.4c0,3.4,2.7,6.1,6.1,6.1h54.7
		c2.8,0,5.1-1.8,5.8-4.4c0.8,2.5,3.1,4.4,5.8,4.4h54.7c3.4,0,6.1-2.7,6.1-6.1V390c0-2.7-1.8-5-4.2-5.8
		C297.1,383.4,298.9,381.1,298.9,378.4z"/>
	<g>
		<g>
			<path class="st17" d="M291.6,361.1h-52.3c-2.7,0-4.8,2.2-4.8,4.8v11.6c0,2.7,2.2,4.8,4.8,4.8h52.3c2.7,0,4.8-2.2,4.8-4.8V366
				C296.4,363.3,294.2,361.1,291.6,361.1z M243.6,374.6c-1.6,0-2.9-1.3-2.9-2.9c0-1.6,1.3-2.9,2.9-2.9c1.6,0,2.9,1.3,2.9,2.9
				C246.5,373.4,245.2,374.6,243.6,374.6z"/>
			<path class="st17" d="M291.6,386h-52.3c-2.7,0-4.8,2.2-4.8,4.8v11.6c0,2.7,2.2,4.8,4.8,4.8h52.3c2.7,0,4.8-2.2,4.8-4.8v-11.6
				C296.4,388.2,294.2,386,291.6,386z M243.6,399.5c-1.6,0-2.9-1.3-2.9-2.9c0-1.6,1.3-2.9,2.9-2.9c1.6,0,2.9,1.3,2.9,2.9
				C246.5,398.3,245.2,399.5,243.6,399.5z"/>
		</g>
		<g>
			<path class="st17" d="M225.2,361.1h-52.3c-2.7,0-4.8,2.2-4.8,4.8v11.6c0,2.7,2.2,4.8,4.8,4.8h52.3c2.7,0,4.8-2.2,4.8-4.8V366
				C230,363.3,227.9,361.1,225.2,361.1z M177.3,374.6c-1.6,0-2.9-1.3-2.9-2.9c0-1.6,1.3-2.9,2.9-2.9s2.9,1.3,2.9,2.9
				C180.1,373.4,178.9,374.6,177.3,374.6z"/>
			<path class="st17" d="M225.2,386h-52.3c-2.7,0-4.8,2.2-4.8,4.8v11.6c0,2.7,2.2,4.8,4.8,4.8h52.3c2.7,0,4.8-2.2,4.8-4.8v-11.6
				C230,388.2,227.9,386,225.2,386z M177.3,399.5c-1.6,0-2.9-1.3-2.9-2.9c0-1.6,1.3-2.9,2.9-2.9s2.9,1.3,2.9,2.9
				C180.1,398.3,178.9,399.5,177.3,399.5z"/>
		</g>
	</g>
</g>
</svg>
