<?xml version="1.0" encoding="utf-8"?>
<!-- Generator: Adobe Illustrator 26.0.3, SVG Export Plug-In . SVG Version: 6.00 Build 0)  -->
<svg version="1.1" id="cat" xmlns="http://www.w3.org/2000/svg" xmlns:xlink="http://www.w3.org/1999/xlink" x="0px" y="0px"
	 viewBox="0 0 221.7 246" style="enable-background:new 0 0 221.7 246;" xml:space="preserve">
<style type="text/css">
	.st0{fill:#6E8E70;}
	.st1{fill:#FFFFFF;}
	.st2{fill:#5968B2;}
	.st3{fill:#E42528;}
</style>
<path class="st0" d="M135.2,55.9V2.3L81.6,55.9H37L1.3,20.2v16.7c3.2,0.1,6.3,1.2,8.6,3.4c3.9,3.7,4.6,10.4,1.1,14.4
	c3.2,1.5,5.8,4.7,5.6,8.3c-0.2,3.5-3.9,6.7-7.2,5.6c4.1,0.9,6.4,6.5,4,10c-2.9,4.2-7.4,3.8-12,1.4v56.2c0,29.6,24,53.6,53.6,53.6
	h80.4V55.9H135.2z"/>
<path id="_x3C_cat_x5F_tail_x3E_" class="st0" d="M180.5,174.9h-47.2c-12.3,0-23.4,5.8-30.6,14.7h59.3c15,0,27.3,12.3,27.3,27.3v4.3
	c0,2.3,0.1,5.8,0.1,11.1c0.1,6.7,5.5,12.1,12.2,12.1h0c10,0,18-8.1,18-18v-12.2C219.7,192.6,202.1,174.9,180.5,174.9z"/>
<path id="_x3C_eye_x5F_back_x3E_" class="st1" d="M39.2,129.3l54.4-10.5c12.5-2.4,20.7-14.5,18.3-27c-2.4-12.5-14.5-20.7-27-18.3
	L30.5,83.9C18,86.3,9.8,98.4,12.2,111C14.6,123.5,26.7,131.7,39.2,129.3"/>
<path id="_x3C_eye_x5F_right_x3E_" class="st2" d="M105,93.1c1.9,9.7-4.5,19.1-14.2,20.9c-9.7,1.9-19.1-4.5-20.9-14.2
	C68,90.2,74.4,80.8,84,79C93.7,77.1,103.1,83.5,105,93.1"/>
<path class="st1" d="M81,84.3c1.4-1.7,3.3-2.2,5.3-2.5c8.6-1.2,14.4,6.4,15.2,13.2c1.1,10.1-8.4,18.3-18,15.4
	c-9-2.7-12-13.8-5.5-20.1c5.2-5,13.5-3.4,16.1,3.1c1.2,3.1,0.7,6-1.6,8.4c-1.9,2.1-4.3,2.9-7.1,2c-3.1-1-4.9-4.2-3.8-7
	c0.8-2.1,3-3.2,4.8-2.5c1,0.4,1.7,1.1,1.5,2.4c-1.5-1.3-2.6-1.3-3.5-0.3c-1,1.2-0.7,3.1,0.6,4.1c2.1,1.6,5.3,0.5,6.3-2.1
	c1.6-4.2-2.1-8.7-6.8-8.1c-3.1,0.4-5.2,2.1-6.4,5c-1.3,3.4-0.7,6.5,1.6,9.1c2.9,3.3,6.6,4.3,10.6,3c4.4-1.4,7.1-4.5,7.9-9.1
	c1.4-8.4-6.1-15.9-14.6-14.7C82.8,83.9,81.9,84.2,81,84.3z"/>
<path id="_x3C_eye_x5F_right_x3E__1_" d="M53.9,103.1c1.9,9.7-4.5,19.1-14.2,20.9c-9.7,1.9-19.1-4.5-20.9-14.2
	c-1.9-9.7,4.5-19.1,14.2-20.9C42.6,87.1,52,93.4,53.9,103.1"/>
<g>
	<path class="st1" d="M46.8,111.7l-9.4-5.3l5.4-9.4c0.2-0.4,0.1-0.9-0.3-1.2c-0.4-0.2-0.9-0.1-1.2,0.3l-5.4,9.4l-9.3-5.3
		c-0.4-0.2-0.9-0.1-1.2,0.3c-0.2,0.4-0.1,0.9,0.3,1.2l9.3,5.3l-5.3,9.3c-0.2,0.4-0.1,0.9,0.3,1.2c0.4,0.2,0.9,0.1,1.2-0.3l5.3-9.3
		l9.4,5.3c0.4,0.2,0.9,0.1,1.2-0.3C47.3,112.4,47.2,111.9,46.8,111.7z"/>
	<path class="st1" d="M47.4,114.3c-0.2,0.1-0.3,0.2-0.5,0.2c-0.6,0.2-1.2,0.1-1.7-0.2l-8.2-4.7l-4.6,8.1c-0.6,1.1-1.9,1.4-3,0.8
		c-1.1-0.6-1.4-1.9-0.8-3l4.6-8.1l-8.2-4.7c-1.1-0.6-1.4-1.9-0.8-3c0.6-1.1,1.9-1.4,3-0.8l8.2,4.7l4.7-8.2c0.3-0.5,0.8-0.9,1.3-1
		c0.6-0.2,1.2-0.1,1.7,0.2c1.1,0.6,1.4,1.9,0.8,3l-4.7,8.2l8.2,4.7c0.5,0.3,0.9,0.8,1,1.3c0.2,0.6,0.1,1.2-0.2,1.7
		C48.1,113.9,47.8,114.1,47.4,114.3z"/>
</g>
<g id="_x3C_hair_x5F_right_x3E__2_">
	<path class="st1" d="M110.4,121.1l34.8-10.1c0.7-0.2,1.1-1,0.9-1.7c-0.2-0.7-1-1.1-1.7-0.9l-34.8,10.1c-0.7,0.2-1.1,1-0.9,1.7
		C109,120.9,109.7,121.3,110.4,121.1"/>
	<path class="st1" d="M152.8,112.6l-47.9,14c-0.7,0.2-1.1,1-0.9,1.7c0.2,0.7,1,1.1,1.7,0.9l47.9-14c0.7-0.2,1.1-1,0.9-1.7
		C154.3,112.8,153.5,112.4,152.8,112.6"/>
	<path class="st1" d="M148.1,120.7l-34.8,10.1c-0.7,0.2-1.1,1-0.9,1.7c0.2,0.7,1,1.1,1.7,0.9l34.8-10.1c0.7-0.2,1.1-1,0.9-1.7
		C149.5,120.9,148.8,120.5,148.1,120.7"/>
</g>
<path id="_x3C_nose_x5F_mouth_x3E_" class="st1" d="M80.9,148.6l-1-3l3.8-9.6c0.4-0.9,0-2.1-0.9-2.6c-0.9-0.5-1.8-0.2-2.2,0.8
	l-3.3,8.5l-7.9-4.6c-0.9-0.5-1.8-0.2-2.2,0.8c-0.4,0.9,0,2.1,0.9,2.6l8.7,5.1c0,0,0,0,0,0l1.1,3.1C79.5,154.7,81.9,151.6,80.9,148.6
	z"/>
<ellipse transform="matrix(0.9041 -0.4273 0.4273 0.9041 -18.1232 57.9931)" class="st3" cx="120.2" cy="69.4" rx="1.5" ry="18.1"/>
<g>
	<g>
		<path class="st1" d="M110.8,63.1c-0.5,0-1-0.3-1.2-0.8c-0.3-0.7,0-1.5,0.6-1.8l8.5-4.1c0.7-0.3,1.5,0,1.8,0.6
			c0.3,0.7,0,1.5-0.6,1.8l-8.5,4.1C111.2,63.1,111,63.1,110.8,63.1z"/>
	</g>
	<g>
		<path class="st1" d="M113.3,68.7c-0.5,0-1-0.3-1.2-0.8c-0.3-0.7,0-1.5,0.7-1.8l8.1-3.5c0.7-0.3,1.5,0,1.8,0.7
			c0.3,0.7,0,1.5-0.7,1.8l-8.1,3.5C113.7,68.7,113.5,68.7,113.3,68.7z"/>
	</g>
	<g>
		<path class="st1" d="M116.9,75.4c-0.5,0-1-0.3-1.2-0.8c-0.3-0.7,0-1.5,0.6-1.8l8.5-4.1c0.7-0.3,1.5,0,1.8,0.6
			c0.3,0.7,0,1.5-0.6,1.8l-8.5,4.1C117.3,75.3,117.1,75.4,116.9,75.4z"/>
	</g>
	<g>
		<path class="st1" d="M119.4,80.9c-0.5,0-1-0.3-1.2-0.8c-0.3-0.7,0-1.5,0.7-1.8l8.1-3.5c0.7-0.3,1.5,0,1.8,0.7
			c0.3,0.7,0,1.5-0.7,1.8l-8.1,3.5C119.8,80.9,119.6,80.9,119.4,80.9z"/>
	</g>
</g>
<g id="_x3C_hair_x5F_right_x3E_">
	<path class="st1" d="M1.7,152.2L36.5,142c0.7-0.2,1.1-1,0.9-1.7c-0.2-0.7-1-1.1-1.7-0.9L1,149.6c-0.7,0.2-1.1,1-0.9,1.7
		C0.3,152,1,152.4,1.7,152.2"/>
	<path class="st1" d="M44.1,143.7l-47.9,14c-0.7,0.2-1.1,1-0.9,1.7c0.2,0.7,1,1.1,1.7,0.9l47.9-14c0.7-0.2,1.1-1,0.9-1.7
		C45.5,143.9,44.8,143.5,44.1,143.7"/>
	<path class="st1" d="M39.3,151.9L4.6,162c-0.7,0.2-1.1,1-0.9,1.7c0.2,0.7,1,1.1,1.7,0.9l34.8-10.1c0.7-0.2,1.1-1,0.9-1.7
		C40.8,152.1,40.1,151.6,39.3,151.9"/>
</g>
</svg>
