<?xml version="1.0" encoding="utf-8"?>
<!-- Generator: Adobe Illustrator 26.0.3, SVG Export Plug-In . SVG Version: 6.00 Build 0)  -->
<svg version="1.1" id="cat" xmlns="http://www.w3.org/2000/svg" xmlns:xlink="http://www.w3.org/1999/xlink" x="0px" y="0px"
	 viewBox="0 0 291.5 271" style="enable-background:new 0 0 291.5 271;" xml:space="preserve">
<style type="text/css">
	.st0{fill:#6E8E70;}
	.st1{fill:#FFFFFF;}
	.st2{fill:#5968B2;}
	.st3{fill:#E42528;}
</style>
<path class="st0" d="M205,69.5V15.9l-53.6,53.6h-44.5L71.1,33.8v16.7c3.2,0.1,6.3,1.2,8.6,3.4c3.9,3.7,4.6,10.4,1.1,14.4
	c3.2,1.5,5.8,4.7,5.6,8.3c-0.2,3.5-3.9,6.7-7.2,5.6c4.1,0.9,6.4,6.5,4,10c-2.9,4.2-7.4,3.8-12,1.4v56.2c0,29.6,24,53.6,53.6,53.6
	h80.4V69.5H205z"/>
<path id="_x3C_cat_x5F_tail_x3E_" class="st0" d="M250.3,188.5h-47.2c-12.3,0-23.4,5.8-30.6,14.7h59.3c15,0,27.3,12.3,27.3,27.3v4.3
	c0,2.3,0.1,5.8,0.1,11.1c0.1,6.7,5.5,12.1,12.2,12.1h0c10,0,18-8.1,18-18v-12.2C289.5,206.2,271.9,188.5,250.3,188.5z"/>
<path id="_x3C_eye_x5F_back_x3E_" class="st1" d="M109,142.9l54.4-10.5c12.5-2.4,20.7-14.5,18.3-27c-2.4-12.5-14.5-20.7-27-18.3
	l-54.4,10.5c-12.5,2.4-20.7,14.5-18.3,27C84.4,137.1,96.5,145.3,109,142.9"/>
<path id="_x3C_eye_x5F_right_x3E_" class="st2" d="M174.7,106.8c1.9,9.7-4.5,19.1-14.2,20.9c-9.7,1.9-19.1-4.5-20.9-14.2
	c-1.9-9.7,4.5-19.1,14.2-20.9C163.5,90.7,172.9,97.1,174.7,106.8"/>
<path class="st1" d="M150.8,97.9c1.4-1.7,3.3-2.2,5.3-2.5c8.6-1.2,14.4,6.4,15.2,13.2c1.1,10.1-8.4,18.3-18,15.4
	c-9-2.7-12-13.8-5.5-20.1c5.2-5,13.5-3.4,16.1,3.1c1.2,3.1,0.7,6-1.6,8.4c-1.9,2.1-4.3,2.9-7.1,2c-3.1-1-4.9-4.2-3.8-7
	c0.8-2.1,3-3.2,4.8-2.5c1,0.4,1.7,1.1,1.5,2.4c-1.5-1.3-2.6-1.3-3.5-0.3c-1,1.2-0.7,3.1,0.6,4.1c2.1,1.6,5.3,0.5,6.3-2.1
	c1.6-4.2-2.1-8.7-6.8-8.1c-3.1,0.4-5.2,2.1-6.4,5c-1.3,3.4-0.7,6.5,1.6,9.1c2.9,3.3,6.6,4.3,10.6,3c4.4-1.4,7.1-4.5,7.9-9.1
	c1.4-8.4-6.1-15.9-14.6-14.7C152.6,97.6,151.7,97.8,150.8,97.9z"/>
<path id="_x3C_eye_x5F_right_x3E__1_" d="M123.6,116.7c1.9,9.7-4.5,19.1-14.2,20.9c-9.7,1.9-19.1-4.5-20.9-14.2
	c-1.9-9.7,4.5-19.1,14.2-20.9C112.4,100.7,121.8,107,123.6,116.7"/>
<g>
	<path class="st1" d="M116.6,125.3l-9.4-5.3l5.4-9.4c0.2-0.4,0.1-0.9-0.3-1.2c-0.4-0.2-0.9-0.1-1.2,0.3l-5.4,9.4l-9.3-5.3
		c-0.4-0.2-0.9-0.1-1.2,0.3s-0.1,0.9,0.3,1.2l9.3,5.3l-5.3,9.3c-0.2,0.4-0.1,0.9,0.3,1.2c0.4,0.2,0.9,0.1,1.2-0.3l5.3-9.3l9.4,5.3
		c0.4,0.2,0.9,0.1,1.2-0.3C117.1,126,117,125.5,116.6,125.3z"/>
	<path class="st1" d="M117.2,127.9c-0.2,0.1-0.3,0.2-0.5,0.2c-0.6,0.2-1.2,0.1-1.7-0.2l-8.2-4.7l-4.6,8.1c-0.6,1.1-1.9,1.4-3,0.8
		c-1.1-0.6-1.4-1.9-0.8-3l4.6-8.1l-8.2-4.7c-1.1-0.6-1.4-1.9-0.8-3c0.6-1.1,1.9-1.4,3-0.8l8.2,4.7l4.7-8.2c0.3-0.5,0.8-0.9,1.3-1
		c0.6-0.2,1.2-0.1,1.7,0.2c1.1,0.6,1.4,1.9,0.8,3l-4.7,8.2l8.2,4.7c0.5,0.3,0.9,0.8,1,1.3c0.2,0.6,0.1,1.2-0.2,1.7
		C117.8,127.5,117.6,127.7,117.2,127.9z"/>
</g>
<path id="_x3C_hand_x3E__1_" class="st0" d="M27.7,188.3C27.6,188.3,27.6,188.3,27.7,188.3c-3,0.4-5.8-5.4-6.2-5.2
	c-0.4,0.2-0.8,0.6-1,0.9c-3.4,4.8-0.4,8.5-0.6,13.5c-0.1,1.8-1.5,3.3-3.2,4c-1.7,0.6-3.6,0.4-5.3-0.2c-4.9-1.6-9.8-6.9-9.1-12.4
	c0.7-4.8,2.5-9.4,5.3-13.4c2.6-3.8,5.5-7.9,10.8-6.8c6.4,1.3,8.5,8.4,11.3,13.5C30.8,184.5,30.3,187.9,27.7,188.3z"/>
<path class="st0" d="M45.8,147.2c-14.8,5.5-26.9,14.1-34.4,23.5l10.3,5.7c5.2-9.5,16.5-18.6,31.1-24.1c11.4-4.2,22.7-5.4,32-3.9
	l4.4-5.5C77.1,140.1,61.5,141.3,45.8,147.2z"/>
<path id="_x3C_hand_x3E__3_" class="st0" d="M265.8,125.2C265.8,125.2,265.8,125.2,265.8,125.2c2.7-1.4,1.7-7.7,2.2-7.8
	c0.5-0.1,0.9,0,1.4,0.2c5.6,2,5.1,6.8,8.1,10.8c1.1,1.4,3.1,1.9,4.9,1.4c1.7-0.5,3.2-1.7,4.3-3.2c3.1-4.1,4.2-11.3,0.4-15.3
	c-3.3-3.5-7.4-6.3-11.9-8c-4.3-1.7-9-3.4-12.8,0.5c-4.5,4.7-2.2,11.8-1.6,17.6C261,123.8,263.4,126.3,265.8,125.2z"/>
<path class="st0" d="M227.4,101.7c15.3-3.9,30.2-3.7,41.7-0.3l-5.2,10.6c-9.7-4.8-24.1-6-39.3-2.1c-11.8,3-21.8,8.5-28.5,15l-6.7-2
	C197.7,113.7,211.2,105.8,227.4,101.7z"/>
<g id="_x3C_hair_x5F_right_x3E__2_">
	<path class="st1" d="M180.2,134.7l34.8-10.1c0.7-0.2,1.1-1,0.9-1.7c-0.2-0.7-1-1.1-1.7-0.9l-34.8,10.1c-0.7,0.2-1.1,1-0.9,1.7
		C178.8,134.5,179.5,134.9,180.2,134.7"/>
	<path class="st1" d="M222.6,126.2l-47.9,14c-0.7,0.2-1.1,1-0.9,1.7c0.2,0.7,1,1.1,1.7,0.9l47.9-14c0.7-0.2,1.1-1,0.9-1.7
		C224,126.4,223.3,126,222.6,126.2"/>
	<path class="st1" d="M217.8,134.4l-34.8,10.1c-0.7,0.2-1.1,1-0.9,1.7c0.2,0.7,1,1.1,1.7,0.9l34.8-10.1c0.7-0.2,1.1-1,0.9-1.7
		C219.3,134.6,218.6,134.1,217.8,134.4"/>
</g>
<path id="_x3C_nose_x5F_mouth_x3E_" class="st1" d="M150.7,162.2l-1-3l3.8-9.6c0.4-0.9,0-2.1-0.9-2.6c-0.9-0.5-1.8-0.2-2.2,0.8
	l-3.3,8.5l-7.9-4.6c-0.9-0.5-1.8-0.2-2.2,0.8c-0.4,0.9,0,2.1,0.9,2.6l8.7,5.1c0,0,0,0,0,0l1.1,3.1
	C149.3,168.3,151.7,165.2,150.7,162.2z"/>
<ellipse transform="matrix(0.9041 -0.4273 0.4273 0.9041 -17.247 89.1127)" class="st3" cx="189.9" cy="83" rx="1.5" ry="18.1"/>
<g>
	<g>
		<path class="st1" d="M180.6,76.7c-0.5,0-1-0.3-1.2-0.8c-0.3-0.7,0-1.5,0.6-1.8l8.5-4.1c0.7-0.3,1.5,0,1.8,0.6
			c0.3,0.7,0,1.5-0.6,1.8l-8.5,4.1C181,76.7,180.8,76.7,180.6,76.7z"/>
	</g>
	<g>
		<path class="st1" d="M183.1,82.3c-0.5,0-1-0.3-1.2-0.8c-0.3-0.7,0-1.5,0.7-1.8l8.1-3.5c0.7-0.3,1.5,0,1.8,0.7
			c0.3,0.7,0,1.5-0.7,1.8l-8.1,3.5C183.5,82.3,183.3,82.3,183.1,82.3z"/>
	</g>
	<g>
		<path class="st1" d="M186.7,89c-0.5,0-1-0.3-1.2-0.8c-0.3-0.7,0-1.5,0.6-1.8l8.5-4.1c0.7-0.3,1.5,0,1.8,0.6c0.3,0.7,0,1.5-0.6,1.8
			l-8.5,4.1C187.1,88.9,186.9,89,186.7,89z"/>
	</g>
	<g>
		<path class="st1" d="M189.2,94.5c-0.5,0-1-0.3-1.2-0.8c-0.3-0.7,0-1.5,0.7-1.8l8.1-3.5c0.7-0.3,1.5,0,1.8,0.7
			c0.3,0.7,0,1.5-0.7,1.8l-8.1,3.5C189.5,94.5,189.4,94.5,189.2,94.5z"/>
	</g>
</g>
<g id="_x3C_hair_x5F_right_x3E_">
	<path class="st1" d="M71.5,165.8l34.8-10.1c0.7-0.2,1.1-1,0.9-1.7c-0.2-0.7-1-1.1-1.7-0.9l-34.8,10.1c-0.7,0.2-1.1,1-0.9,1.7
		C70,165.6,70.8,166,71.5,165.8"/>
	<path class="st1" d="M113.9,157.3l-47.9,14c-0.7,0.2-1.1,1-0.9,1.7c0.2,0.7,1,1.1,1.7,0.9l47.9-14c0.7-0.2,1.1-1,0.9-1.7
		C115.3,157.5,114.6,157.1,113.9,157.3"/>
	<path class="st1" d="M109.1,165.5l-34.8,10.1c-0.7,0.2-1.1,1-0.9,1.7c0.2,0.7,1,1.1,1.7,0.9l34.8-10.1c0.7-0.2,1.1-1,0.9-1.7
		C110.6,165.7,109.8,165.3,109.1,165.5"/>
</g>
</svg>
